<?xml version="1.0" encoding="UTF-8" standalone="no"?>
<!-- Created with Inkscape (http://www.inkscape.org/) -->

<svg
   xmlns:dc="http://purl.org/dc/elements/1.1/"
   xmlns:cc="http://creativecommons.org/ns#"
   xmlns:rdf="http://www.w3.org/1999/02/22-rdf-syntax-ns#"
   xmlns:svg="http://www.w3.org/2000/svg"
   xmlns="http://www.w3.org/2000/svg"
   xmlns:sodipodi="http://sodipodi.sourceforge.net/DTD/sodipodi-0.dtd"
   xmlns:inkscape="http://www.inkscape.org/namespaces/inkscape"
   width="210mm"
   height="297mm"
   id="svg2"
   version="1.1"
   inkscape:version="0.48.4 r9939"
   sodipodi:docname="Nuevo documento 1">
  <defs
     id="defs4" />
  <sodipodi:namedview
     id="base"
     pagecolor="#ffffff"
     bordercolor="#666666"
     borderopacity="1.0"
     inkscape:pageopacity="0.0"
     inkscape:pageshadow="2"
     inkscape:zoom="0.24748737"
     inkscape:cx="175.35211"
     inkscape:cy="2.1065872"
     inkscape:document-units="px"
     inkscape:current-layer="layer1"
     showgrid="false"
     inkscape:window-width="1920"
     inkscape:window-height="1024"
     inkscape:window-x="0"
     inkscape:window-y="27"
     inkscape:window-maximized="1" />
  <metadata
     id="metadata7">
    <rdf:RDF>
      <cc:Work
         rdf:about="">
        <dc:format>image/svg+xml</dc:format>
        <dc:type
           rdf:resource="http://purl.org/dc/dcmitype/StillImage" />
        <dc:title></dc:title>
      </cc:Work>
    </rdf:RDF>
  </metadata>
  <g
     inkscape:label="Capa 1"
     inkscape:groupmode="layer"
     id="layer1">
    <path
       sodipodi:type="arc"
       style="fill:#1f1f20;fill-opacity:1;fill-rule:evenodd;stroke:none"
       id="path2996"
       sodipodi:cx="247.99245"
       sodipodi:cy="612.44073"
       sodipodi:rx="66.164993"
       sodipodi:ry="66.164993"
       d="m 314.15744,612.44073 a 66.164993,66.164993 0 1 1 -132.32999,0 66.164993,66.164993 0 1 1 132.32999,0 z"
       transform="translate(287.89347,-316.17775)" />
    <path
       d="m 314.15744,612.44073 a 66.164993,66.164993 0 1 1 -132.32999,0 66.164993,66.164993 0 1 1 132.32999,0 z"
       sodipodi:ry="66.164993"
       sodipodi:rx="66.164993"
       sodipodi:cy="612.44073"
       sodipodi:cx="247.99245"
       id="path3002"
       style="fill:#606d80;fill-opacity:1;fill-rule:evenodd;stroke:none"
       sodipodi:type="arc"
       transform="translate(287.89347,107.07616)" />
    <rect
       style="fill:#1f1f20;fill-opacity:1;stroke:none"
       id="rect3790"
       width="500.02551"
       height="188.89853"
       x="-95.964462"
       y="213.93558" />
    <path
       transform="translate(-245.46707,-297.99501)"
       sodipodi:type="arc"
       style="fill:#ff0ba9;fill-opacity:1;fill-rule:evenodd;stroke:none"
       id="path3004"
       sodipodi:cx="247.99245"
       sodipodi:cy="612.44073"
       sodipodi:rx="66.164993"
       sodipodi:ry="66.164993"
       d="m 314.15744,612.44073 a 66.164993,66.164993 0 1 1 -132.32999,0 66.164993,66.164993 0 1 1 132.32999,0 z" />
    <path
       d="m 314.15744,612.44073 a 66.164993,66.164993 0 1 1 -132.32999,0 66.164993,66.164993 0 1 1 132.32999,0 z"
       sodipodi:ry="66.164993"
       sodipodi:rx="66.164993"
       sodipodi:cy="612.44073"
       sodipodi:cx="247.99245"
       id="path3006"
       style="fill:#56dbbb;fill-opacity:1;fill-rule:evenodd;stroke:none"
       sodipodi:type="arc"
       transform="translate(-90.913728,-300.01531)" />
    <path
       d="m 314.15744,612.44073 a 66.164993,66.164993 0 1 1 -132.32999,0 66.164993,66.164993 0 1 1 132.32999,0 z"
       sodipodi:ry="66.164993"
       sodipodi:rx="66.164993"
       sodipodi:cy="612.44073"
       sodipodi:cx="247.99245"
       id="path2998"
       style="fill:#2b4c7e;fill-opacity:1;fill-rule:evenodd;stroke:none"
       sodipodi:type="arc"
       transform="translate(287.89347,-174.7564)" />
    <path
       transform="translate(285.87317,-35.355346)"
       sodipodi:type="arc"
       style="fill:#567ebb;fill-opacity:1;fill-rule:evenodd;stroke:none"
       id="path3000"
       sodipodi:cx="247.99245"
       sodipodi:cy="612.44073"
       sodipodi:rx="66.164993"
       sodipodi:ry="66.164993"
       d="m 314.15744,612.44073 a 66.164993,66.164993 0 1 1 -132.32999,0 66.164993,66.164993 0 1 1 132.32999,0 z" />
    <path
       d="m 314.15744,612.44073 a 66.164993,66.164993 0 1 1 -132.32999,0 66.164993,66.164993 0 1 1 132.32999,0 z"
       sodipodi:ry="66.164993"
       sodipodi:rx="66.164993"
       sodipodi:cy="612.44073"
       sodipodi:cx="247.99245"
       id="path3794"
       style="fill:#567ebb;fill-opacity:1;fill-rule:evenodd;stroke:none"
       sodipodi:type="arc"
       transform="translate(70.710682,-302.03562)" />
    <path
       d="m 314.15744,612.44073 a 66.164993,66.164993 0 1 1 -132.32999,0 66.164993,66.164993 0 1 1 132.32999,0 z"
       sodipodi:ry="66.164993"
       sodipodi:rx="66.164993"
       sodipodi:cy="612.44073"
       sodipodi:cx="247.99245"
       id="path3796"
       style="fill:#ff0ba9;fill-opacity:1;fill-rule:evenodd;stroke:none"
       sodipodi:type="arc"
       transform="translate(436.38589,-169.70564)" />
    <path
       transform="translate(429.31482,-25.253816)"
       sodipodi:type="arc"
       style="fill:#56dbbb;fill-opacity:1;fill-rule:evenodd;stroke:none"
       id="path3798"
       sodipodi:cx="247.99245"
       sodipodi:cy="612.44073"
       sodipodi:rx="66.164993"
       sodipodi:ry="66.164993"
       d="m 314.15744,612.44073 a 66.164993,66.164993 0 1 1 -132.32999,0 66.164993,66.164993 0 1 1 132.32999,0 z" />
    <path
       d="m 314.15744,612.44073 a 66.164993,66.164993 0 1 1 -132.32999,0 66.164993,66.164993 0 1 1 132.32999,0 z"
       sodipodi:ry="66.164993"
       sodipodi:rx="66.164993"
       sodipodi:cy="612.44073"
       sodipodi:cx="247.99245"
       id="path3800"
       style="opacity:0.5;fill:#ff83d4;fill-opacity:1;fill-rule:evenodd;stroke:none"
       sodipodi:type="arc"
       transform="translate(-245.46707,-246.47723)" />
    <path
       transform="translate(-90.913728,-248.49753)"
       sodipodi:type="arc"
       style="opacity:0.5;fill:#bcf1e4;fill-opacity:1;fill-rule:evenodd;stroke:none"
       id="path3802"
       sodipodi:cx="247.99245"
       sodipodi:cy="612.44073"
       sodipodi:rx="66.164993"
       sodipodi:ry="66.164993"
       d="m 314.15744,612.44073 a 66.164993,66.164993 0 1 1 -132.32999,0 66.164993,66.164993 0 1 1 132.32999,0 z" />
    <path
       transform="translate(70.710682,-250.51784)"
       sodipodi:type="arc"
       style="opacity:0.5;fill:#b9c9e3;fill-opacity:1;fill-rule:evenodd;stroke:none"
       id="path3804"
       sodipodi:cx="247.99245"
       sodipodi:cy="612.44073"
       sodipodi:rx="66.164993"
       sodipodi:ry="66.164993"
       d="m 314.15744,612.44073 a 66.164993,66.164993 0 1 1 -132.32999,0 66.164993,66.164993 0 1 1 132.32999,0 z" />
  </g>
</svg>
